<svg width="212" height="29" viewBox="0 0 212 29" fill="none" xmlns="http://www.w3.org/2000/svg">
<path d="M12.608 28.396C9.968 28.396 7.712 27.832 5.84 26.704C3.992 25.552 2.588 23.944 1.628 21.88C0.668 19.816 0.188 17.392 0.188 14.608C0.188 11.92 0.752 9.544 1.88 7.48C3.008 5.416 4.556 3.82 6.524 2.692C8.492 1.54 10.7 0.963998 13.148 0.963998C14.996 0.963998 17.216 1.252 19.808 1.828L20.996 2.044L20.636 8.524H18.224L17.324 3.952C16.988 3.664 16.4 3.424 15.56 3.232C14.744 3.016 13.736 2.908 12.536 2.908C11 2.908 9.632 3.352 8.432 4.24C7.232 5.104 6.284 6.388 5.588 8.092C4.916 9.796 4.58 11.836 4.58 14.212C4.58 16.468 4.88 18.52 5.48 20.368C6.08 22.216 6.992 23.692 8.216 24.796C9.44 25.876 10.952 26.416 12.752 26.416C14.024 26.416 14.996 26.308 15.668 26.092C16.364 25.876 16.952 25.564 17.432 25.156L18.944 21.628L21.212 21.916L20.348 27.028C19.844 27.052 19.1 27.22 18.116 27.532C17.252 27.796 16.412 28 15.596 28.144C14.804 28.312 13.808 28.396 12.608 28.396ZM35.0835 28.396C32.6355 28.396 30.5595 27.832 28.8555 26.704C27.1755 25.576 25.9035 23.992 25.0395 21.952C24.1755 19.888 23.7435 17.5 23.7435 14.788C23.7435 12.028 24.2595 9.604 25.2915 7.516C26.3475 5.428 27.7875 3.82 29.6115 2.692C31.4355 1.54 33.4875 0.963998 35.7675 0.963998C39.5115 0.963998 42.3675 2.152 44.3355 4.528C46.3275 6.88 47.3235 10.144 47.3235 14.32C47.3235 17.128 46.7835 19.6 45.7035 21.736C44.6475 23.848 43.1835 25.492 41.3115 26.668C39.4635 27.82 37.3875 28.396 35.0835 28.396ZM35.5515 2.836C33.2235 2.836 31.3875 3.856 30.0435 5.896C28.6995 7.912 28.0275 10.876 28.0275 14.788C28.0275 18.388 28.6755 21.244 29.9715 23.356C31.2915 25.444 33.1275 26.488 35.4795 26.488C37.7835 26.488 39.6075 25.444 40.9515 23.356C42.3195 21.268 43.0035 18.268 43.0035 14.356C43.0035 10.732 42.3555 7.912 41.0595 5.896C39.7635 3.856 37.9275 2.836 35.5515 2.836ZM58.94 28.396C57.692 28.396 56.576 28.288 55.592 28.072C54.608 27.856 53.528 27.568 52.352 27.208C51.632 26.944 51.092 26.8 50.732 26.776L51.02 20.26H53.324L53.936 24.94C54.344 25.324 55.004 25.672 55.916 25.984C56.852 26.272 57.872 26.416 58.976 26.416C60.8 26.416 62.18 26.008 63.116 25.192C64.076 24.376 64.556 23.248 64.556 21.808C64.556 20.872 64.292 20.068 63.764 19.396C63.26 18.724 62.576 18.148 61.712 17.668C60.872 17.188 59.708 16.624 58.22 15.976C56.876 15.376 55.7 14.764 54.692 14.14C53.708 13.516 52.844 12.688 52.1 11.656C51.38 10.6 51.02 9.34 51.02 7.876C51.02 6.556 51.368 5.38 52.064 4.348C52.784 3.292 53.804 2.464 55.124 1.864C56.468 1.264 58.028 0.963998 59.804 0.963998C60.908 0.963998 61.88 1.048 62.72 1.216C63.584 1.384 64.556 1.612 65.636 1.9C66.116 2.068 66.524 2.176 66.86 2.224L66.644 8.272H64.448L63.728 3.844C63.488 3.604 62.984 3.376 62.216 3.16C61.472 2.944 60.656 2.836 59.768 2.836C58.112 2.836 56.852 3.184 55.988 3.88C55.148 4.576 54.728 5.584 54.728 6.904C54.728 7.864 54.98 8.668 55.484 9.316C56.012 9.964 56.66 10.516 57.428 10.972C58.196 11.428 59.42 12.052 61.1 12.844C62.66 13.588 63.932 14.26 64.916 14.86C65.9 15.46 66.74 16.252 67.436 17.236C68.156 18.196 68.516 19.348 68.516 20.692C68.516 21.964 68.156 23.188 67.436 24.364C66.74 25.54 65.66 26.512 64.196 27.28C62.756 28.024 61.004 28.396 58.94 28.396ZM75.779 3.484L71.855 3.052V1.252H81.395L86.471 17.452L87.659 22.024L88.739 17.452L93.779 1.252H103.247V3.052L99.287 3.484L102.167 25.84L105.299 26.236V28H94.931V26.236L98.207 25.876L96.587 9.712L95.831 2.764L94.319 7.948L88.307 26.776H85.967L80.135 9.532L78.011 2.728L77.363 9.712L75.923 25.876L79.487 26.236V28H70.091V26.236L73.151 25.876L75.779 3.484ZM110.167 3.484L107.215 3.052V1.252H125.539L126.043 6.832H123.991L122.947 3.34L114.019 3.124V13.276L120.031 13.168L120.535 10.18H122.515V18.46H120.535L120.031 15.364L114.019 15.256V25.984L124.171 25.624L126.079 21.088L128.203 21.736L127.159 28H107.179V26.236L110.167 25.876V3.484ZM139.413 3.16L133.221 3.376L131.961 10.9H129.585L130.197 1.252H152.625L153.057 10.9H150.789L149.601 3.376L143.373 3.16V25.876L148.485 26.236V28H134.733V26.236L139.413 25.876V3.16ZM159.19 3.484L155.842 3.052V1.252H166.426V3.052L163.078 3.484V25.876L166.426 26.272V28H155.878V26.236L159.19 25.876V3.484ZM182.026 28.396C179.386 28.396 177.13 27.832 175.258 26.704C173.41 25.552 172.006 23.944 171.046 21.88C170.086 19.816 169.606 17.392 169.606 14.608C169.606 11.92 170.17 9.544 171.298 7.48C172.426 5.416 173.974 3.82 175.942 2.692C177.91 1.54 180.118 0.963998 182.566 0.963998C184.414 0.963998 186.634 1.252 189.226 1.828L190.414 2.044L190.054 8.524H187.642L186.742 3.952C186.406 3.664 185.818 3.424 184.978 3.232C184.162 3.016 183.154 2.908 181.954 2.908C180.418 2.908 179.05 3.352 177.85 4.24C176.65 5.104 175.702 6.388 175.006 8.092C174.334 9.796 173.998 11.836 173.998 14.212C173.998 16.468 174.298 18.52 174.898 20.368C175.498 22.216 176.41 23.692 177.634 24.796C178.858 25.876 180.37 26.416 182.17 26.416C183.442 26.416 184.414 26.308 185.086 26.092C185.782 25.876 186.37 25.564 186.85 25.156L188.362 21.628L190.63 21.916L189.766 27.028C189.262 27.052 188.518 27.22 187.534 27.532C186.67 27.796 185.83 28 185.014 28.144C184.222 28.312 183.226 28.396 182.026 28.396ZM202.378 28.396C201.13 28.396 200.014 28.288 199.03 28.072C198.046 27.856 196.966 27.568 195.79 27.208C195.07 26.944 194.53 26.8 194.17 26.776L194.458 20.26H196.762L197.374 24.94C197.782 25.324 198.442 25.672 199.354 25.984C200.29 26.272 201.31 26.416 202.414 26.416C204.238 26.416 205.618 26.008 206.554 25.192C207.514 24.376 207.994 23.248 207.994 21.808C207.994 20.872 207.73 20.068 207.202 19.396C206.698 18.724 206.014 18.148 205.15 17.668C204.31 17.188 203.146 16.624 201.658 15.976C200.314 15.376 199.138 14.764 198.13 14.14C197.146 13.516 196.282 12.688 195.538 11.656C194.818 10.6 194.458 9.34 194.458 7.876C194.458 6.556 194.806 5.38 195.502 4.348C196.222 3.292 197.242 2.464 198.562 1.864C199.906 1.264 201.466 0.963998 203.242 0.963998C204.346 0.963998 205.318 1.048 206.158 1.216C207.022 1.384 207.994 1.612 209.074 1.9C209.554 2.068 209.962 2.176 210.298 2.224L210.082 8.272H207.886L207.166 3.844C206.926 3.604 206.422 3.376 205.654 3.16C204.91 2.944 204.094 2.836 203.206 2.836C201.55 2.836 200.29 3.184 199.426 3.88C198.586 4.576 198.166 5.584 198.166 6.904C198.166 7.864 198.418 8.668 198.922 9.316C199.45 9.964 200.098 10.516 200.866 10.972C201.634 11.428 202.858 12.052 204.538 12.844C206.098 13.588 207.37 14.26 208.354 14.86C209.338 15.46 210.178 16.252 210.874 17.236C211.594 18.196 211.954 19.348 211.954 20.692C211.954 21.964 211.594 23.188 210.874 24.364C210.178 25.54 209.098 26.512 207.634 27.28C206.194 28.024 204.442 28.396 202.378 28.396Z" fill="#212529"/>
</svg>
