<svg width="27" height="24" viewBox="0 0 27 24" fill="none" xmlns="http://www.w3.org/2000/svg">
<path d="M17.25 20.91C18.3162 21.2196 19.421 21.3761 20.5313 21.375C22.3168 21.3776 24.0791 20.9705 25.6825 20.185C25.7299 19.0646 25.4108 17.9593 24.7735 17.0367C24.1362 16.114 23.2155 15.4242 22.1509 15.0719C21.0863 14.7196 19.9359 14.7239 18.874 15.0842C17.8121 15.4446 16.8966 16.1413 16.2663 17.0688M17.25 20.91V20.9062C17.25 19.515 16.8925 18.2063 16.2663 17.0688M17.25 20.91V21.0425C14.8444 22.4914 12.0883 23.2547 9.28003 23.25C6.36628 23.25 3.64003 22.4437 1.31253 21.0425L1.31128 20.9062C1.31032 19.1368 1.8983 17.4174 2.98251 16.0191C4.06672 14.6207 5.5855 13.623 7.29939 13.1832C9.01329 12.7435 10.8248 12.8866 12.4484 13.5901C14.0719 14.2936 15.4151 15.5175 16.2663 17.0688M13.5 4.96875C13.5 6.08763 13.0556 7.16069 12.2644 7.95186C11.4732 8.74303 10.4002 9.1875 9.28128 9.1875C8.1624 9.1875 7.08934 8.74303 6.29817 7.95186C5.507 7.16069 5.06253 6.08763 5.06253 4.96875C5.06253 3.84987 5.507 2.77681 6.29817 1.98564C7.08934 1.19447 8.1624 0.75 9.28128 0.75C10.4002 0.75 11.4732 1.19447 12.2644 1.98564C13.0556 2.77681 13.5 3.84987 13.5 4.96875ZM23.8125 7.78125C23.8125 8.65149 23.4668 9.48609 22.8515 10.1014C22.2361 10.7168 21.4015 11.0625 20.5313 11.0625C19.661 11.0625 18.8264 10.7168 18.2111 10.1014C17.5957 9.48609 17.25 8.65149 17.25 7.78125C17.25 6.91101 17.5957 6.07641 18.2111 5.46106C18.8264 4.8457 19.661 4.5 20.5313 4.5C21.4015 4.5 22.2361 4.8457 22.8515 5.46106C23.4668 6.07641 23.8125 6.91101 23.8125 7.78125Z" stroke="black" stroke-width="1.5" stroke-linecap="round" stroke-linejoin="round"/>
</svg>
